PathFileType	4	(X/Y/Z)	walk-thru1-5-TP.trc
DataRate	CameraRate	NumFrames	NumMarkers	Units	OrigDataRate	OrigDataStartFrame	OrigNumFrames
120.00	120.00	       4	60	mm	120.00	57	       454
Frame#	Time	Top.Head			Front.Head			Rear.Head			Jaw			C7			R.Clavicle			L.Clavicle			R.Shoulder			L.Shoulder			R.Scapula			L.Scapula			R.Scap.Inf			R.Biceps.Lateral			R.Elbow			R.Elbow.Medial			R.Forearm			R.Ulna			R.Radius			R.Wrist			R.Thumb.M1			R.Thumb.M2			R.Thumb.M3			R.Finger3.M1			R.Finger3.M2			R.Finger3.M3			L.Biceps.Lateral			L.Elbow			L.Elbow.Medial			L.Forearm			L.Ulna			L.Radius			L.Wrist			L.Thumb.M1			L.Thumb.M2			L.Thumb.M3			L.Finger3.M1			L.Finger3.M2			L.Finger3.M3			V.Sacral			R.ASIS			L.ASIS			R.Thigh			R.Thigh.Front			R.Knee			R.Knee.Medial			R.Shank			R.Ankle			R.Ankle.Medial			R.Heel			R.Toe			R.MedFoot			L.Thigh			L.Knee			L.Knee.Medial			L.Shank			L.Ankle			L.Ankle.Medial			L.Heel			L.Toe			L.MedFoot			V_mid_ASIS			V_R_Knee_JC			V_L_Knee_JC			V_R_Elbow_JC			V_L_Elbow_JC			V_R_Ankle_JC			V_L_Ankle_JC			V_R_Wrist_JC			V_L_Wrist_JC			V_R_ScaTrpz_1stMC_JC			V_R_1stMC_1stPP_JC			V_R_1stPP_1stDP_JC			V_R_LunCap_3rdMC_JC			V_R_3rdMC_3rdPP_JC			V_R_3rdPP_3rdMP_JC			V_R_3rdMP_3rdDP_JC			V_L_ScaTrpz_1stMC_JC			V_L_1stMC_1stPP_JC			V_L_1stPP_1stDP_JC			V_L_LunCap_3rdMC_JC			V_L_3rdMC_3rdPP_JC			V_L_3rdPP_3rdMP_JC			V_L_3rdMP_3rdPP_JC			V_ROOT_JC			V_R_Hip_JC			V_L_Hip_JC			V_R_GlenHum_JC			V_L_GlenHum_JC			V_ForeHead_Ctr			V_Vertex			V_Sagit_Lambdoid_Suture			V_R_FrontoTemp			V_L_FrontoTemporal			V_R_ParietalOccip			V_L_ParietalOcciptal			V_R_Temporal			V_L_Temporal			V_mid_FrontRearHead			V_mid_RLGlenHumCtrs			V_C7_vert			V_C1_vert			V_Mid_Hip			
		X1	Y1	Z1	X2	Y2	Z2	X3	Y3	Z3	X4	Y4	Z4	X5	Y5	Z5	X6	Y6	Z6	X7	Y7	Z7	X8	Y8	Z8	X9	Y9	Z9	X10	Y10	Z10	X11	Y11	Z11	X12	Y12	Z12	X13	Y13	Z13	X14	Y14	Z14	X15	Y15	Z15	X16	Y16	Z16	X17	Y17	Z17	X18	Y18	Z18	X19	Y19	Z19	X20	Y20	Z20	X21	Y21	Z21	X22	Y22	Z22	X23	Y23	Z23	X24	Y24	Z24	X25	Y25	Z25	X26	Y26	Z26	X27	Y27	Z27	X28	Y28	Z28	X29	Y29	Z29	X30	Y30	Z30	X31	Y31	Z31	X32	Y32	Z32	X33	Y33	Z33	X34	Y34	Z34	X35	Y35	Z35	X36	Y36	Z36	X37	Y37	Z37	X38	Y38	Z38	X39	Y39	Z39	X40	Y40	Z40	X41	Y41	Z41	X42	Y42	Z42	X43	Y43	Z43	X44	Y44	Z44	X45	Y45	Z45	X46	Y46	Z46	X47	Y47	Z47	X48	Y48	Z48	X49	Y49	Z49	X50	Y50	Z50	X51	Y51	Z51	X52	Y52	Z52	X53	Y53	Z53	X54	Y54	Z54	X55	Y55	Z55	X56	Y56	Z56	X57	Y57	Z57	X58	Y58	Z58	X59	Y59	Z59	X60	Y60	Z60	

57	0.467	1243.63684	-23.65284	1563.94995	1140.21838	-19.75124	1466.02917	1354.36206	-19.69292	1482.49854	1168.63098	-3.68177	1324.67200	1369.56018	-0.84480	1374.48560	1289.14893	107.73518	1283.36633	1271.54529	-104.88985	1292.94727	1338.33435	185.41141	1280.60718	1320.18018	-198.88376	1296.90588	1419.45215	83.92375	1298.52710	1416.34998	-98.23461	1301.87756	1466.04773	67.55463	1217.85681	1319.88342	240.56458	1140.88037	1356.62939	269.63385	982.08807	1390.13989	200.14635	965.36273	1278.68579	259.59308	910.00720	1299.90137	284.41074	823.64532	1231.73010	242.73309	784.01117	1234.63855	281.38696	749.45526	1201.33777	245.81113	736.11719	1184.61829	233.32596	701.82001	1171.44971	223.95435	662.75287	1208.55115	299.43442	677.90125	1202.42896	279.14093	627.78400	1209.30017	253.30438	595.10046	1350.90576	-264.37958	1158.84875	1409.03503	-280.37140	1018.70764	1431.97119	-201.22606	1010.80554	1322.90784	-261.10587	954.22522	1330.69458	-296.05045	863.87329	1277.28149	-237.82889	827.20496	1268.03882	-286.16547	798.88763	1246.07434	-242.31371	790.57727	1234.90820	-218.28087	754.69080	1237.56860	-217.09181	698.59052	1237.67456	-282.02087	713.91125	1236.13074	-267.28333	675.47382	1247.61621	-232.64906	642.37024	1483.61682	0.53970	908.51282	1282.32471	142.49338	972.58215	1306.95093	-172.78322	955.02484	1259.59143	167.15065	584.10034	1186.92712	87.56698	505.42242	1230.31348	125.26359	451.65952	1230.79004	9.38869	449.30106	1225.16235	68.84857	279.09906	1294.39343	81.56039	61.58281	1275.62866	-6.00684	83.37035	1352.07654	24.54197	36.52705	1153.22156	59.67983	41.62548	1206.36487	17.66285	67.58405	1280.25793	-219.41780	583.13147	1255.78760	-205.84616	439.69727	1224.07043	-87.60247	418.51688	1364.17163	-132.08957	274.62692	1538.54138	-136.45352	170.61479	1510.21973	-48.54868	180.54427	1593.00623	-86.62027	195.91130	1461.41614	-90.93783	54.78226	1474.65698	-63.90384	105.22936																																																																																																																															
58	0.475	1237.47729	-23.25265	1564.33105	1135.37683	-18.09557	1465.53174	1348.03235	-19.21414	1482.39832	1163.33740	-4.23672	1324.79077	1363.84094	-0.93154	1375.22668	1283.84521	109.52889	1283.40112	1265.69983	-104.18443	1293.93408	1332.46399	184.79001	1280.19995	1315.33655	-198.00685	1296.87109	1413.54749	84.33757	1298.96545	1411.82935	-98.74935	1302.01099	1460.19482	67.82563	1217.69409	1314.17749	242.33441	1141.62305	1350.35730	271.01917	982.83148	1383.01941	201.41766	965.75952	1270.44250	262.60779	911.57904	1292.57581	286.34488	824.64252	1222.87671	243.93616	784.91156	1225.84680	284.04797	751.41418	1191.88257	248.56339	737.13635	1173.51416	233.87898	704.67902	1160.89905	225.53932	665.14374	1199.18079	300.24875	678.38342	1190.50586	279.44583	629.36505	1198.92407	253.05847	597.20245	1345.50476	-263.60794	1159.62939	1402.85413	-280.72061	1019.19031	1426.55383	-201.05473	1011.31085	1317.84656	-259.37949	954.96912	1324.78577	-295.27484	863.85016	1271.13452	-236.91847	826.88727	1261.91479	-284.84982	800.05927	1240.60681	-240.73091	790.55170	1228.34412	-218.52522	755.21191	1229.80542	-216.60971	699.24316	1229.85071	-281.57574	715.75043	1228.22546	-267.22726	676.80176	1238.58362	-235.99318	643.28870	1478.35364	1.05708	908.77887	1277.01428	142.36414	972.37976	1302.10754	-172.02562	955.56250	1256.54077	167.54199	584.29138	1185.89404	87.46286	504.73578	1228.25500	123.81558	451.43393	1231.32092	10.86743	448.71078	1225.16321	69.11165	279.00302	1294.49316	81.44773	61.58996	1275.62866	-6.00684	83.37035	1352.11096	24.24924	36.37515	1152.98279	59.89333	41.81466	1205.96362	18.58202	67.94192	1270.25781	-217.36493	583.39191	1242.86206	-203.71088	440.89719	1212.30029	-84.74381	420.24277	1350.28943	-130.58829	275.54596	1523.10669	-134.81471	168.93265	1496.08777	-48.62581	179.97121	1578.97827	-86.36455	192.49538	1443.99878	-89.33985	56.05616	1458.55200	-61.23796	106.26637																																																																																																																															
59	0.483	1232.22314	-22.64948	1563.45789	1129.40918	-17.64961	1465.45105	1342.22131	-18.73273	1482.47827	1157.63416	-3.08209	1325.42639	1357.36353	0.59909	1375.59656	1278.58948	111.00542	1283.70422	1260.49731	-103.48683	1293.30676	1326.49146	186.34427	1280.55664	1309.04907	-196.65800	1297.48596	1408.06848	85.78144	1299.03625	1404.82446	-97.95818	1302.26440	1454.69885	68.80055	1218.32312	1306.52612	242.09206	1142.32300	1343.79675	271.43021	983.08588	1375.20544	202.30351	965.07239	1262.91199	263.92862	912.47638	1283.08423	287.53760	824.90424	1213.39893	244.99922	786.50189	1215.45874	284.79349	752.15424	1181.41296	250.11775	739.56836	1164.28235	234.25662	706.50238	1150.28003	226.67848	667.04950	1189.12000	302.05331	680.06061	1181.78967	279.68423	630.83661	1188.94348	253.39014	599.49152	1339.36279	-262.89200	1159.05493	1397.27478	-279.22293	1019.01880	1420.89941	-201.13484	1011.18115	1311.86548	-260.02420	955.12909	1317.87683	-294.33936	864.25714	1266.03528	-235.36833	826.90753	1254.52759	-284.00104	800.84473	1234.02283	-241.10715	791.51654	1220.08496	-218.20985	755.97729	1218.88562	-214.99782	699.99805	1222.46545	-282.31476	717.59277	1219.53760	-268.29568	678.42865	1227.80603	-237.77356	643.69531	1472.96606	1.62313	909.15863	1272.50391	144.11592	972.44794	1297.27441	-171.97556	955.38525	1251.50854	168.69473	584.14832	1183.46838	87.64200	503.72552	1226.76733	124.33066	451.29596	1228.80701	11.53258	448.39651	1224.29016	69.44518	278.43060	1294.45996	81.38006	61.64994	1275.62866	-6.00684	83.37035	1352.23254	24.45162	36.40488	1152.58777	60.20878	41.47815	1205.96362	18.58202	67.94192	1260.80420	-216.19368	584.20166	1229.86047	-202.56262	442.45526	1201.97986	-81.66373	422.74542	1335.55383	-127.51096	275.96594	1508.06665	-133.89555	167.12587	1481.18311	-47.69650	178.15016	1564.85730	-84.91510	189.75856	1424.92322	-86.68703	57.31093	1441.94958	-59.83918	106.81419																																																																																																																															
60	0.492	1225.03699	-21.97393	1564.97253	1123.67908	-17.73792	1465.58179	1336.90369	-17.81406	1482.59375	1151.85693	-3.08582	1325.15344	1351.44153	0.68288	1375.97607	1271.98987	110.58786	1283.61047	1254.32861	-103.61674	1293.97717	1320.26501	188.27068	1281.07422	1302.45679	-196.62376	1298.08191	1402.41455	85.38279	1298.76697	1398.72253	-96.64360	1302.36560	1449.09900	69.33722	1218.66772	1300.26721	243.89679	1142.01184	1335.45593	273.07162	982.73444	1366.38342	203.73325	964.97589	1253.69067	265.13577	914.63043	1275.49182	288.72955	825.80304	1203.61987	247.80597	787.75836	1205.21643	286.85321	753.88757	1172.61011	250.63167	740.91705	1154.77319	236.92998	707.90302	1141.75439	225.64183	669.37231	1180.25134	303.58011	681.26996	1171.79663	281.28046	632.16895	1179.86292	254.95969	599.86523	1333.06421	-263.05188	1159.10303	1391.47815	-278.45776	1019.19714	1414.59570	-199.37828	1011.28662	1305.97693	-257.69803	955.24945	1311.72046	-293.43765	864.86578	1259.70398	-235.45001	826.99512	1249.43884	-283.13638	801.81104	1228.30701	-239.28555	792.75171	1214.08667	-216.48338	756.63153	1210.40967	-215.07939	701.51874	1215.01880	-282.60815	719.26447	1210.74219	-270.52567	679.36169	1217.15869	-241.61932	643.36700	1468.12317	1.82799	909.18036	1265.85388	143.47430	973.19293	1291.76416	-172.89204	955.65607	1247.86572	168.55939	585.22546	1181.37903	88.56499	503.40457	1224.63269	125.07727	450.54111	1227.57373	11.79242	447.80194	1222.93323	69.96713	278.11600	1294.68799	81.12993	61.63969	1275.07117	-6.32711	83.05727	1352.23254	24.45162	36.40488	1152.53662	60.87748	41.56789	1205.96362	18.58202	67.94192	1250.24805	-214.82382	584.87347	1217.07703	-200.50847	443.54312	1190.36475	-79.01413	425.38736	1322.01440	-125.49035	276.55490	1492.01941	-132.70374	164.81859	1465.94482	-45.84007	177.87640	1549.95752	-84.41577	186.00734	1405.89575	-85.36873	57.95188	1424.52258	-59.31097	107.23349																																																																																																																															
